<?xml version="1.0" encoding="UTF-8" standalone="no"?>
<svg xmlns="http://www.w3.org/2000/svg" xmlns:xlink="http://www.w3.org/1999/xlink" class="card" face="JD" height="100%" preserveAspectRatio="xMidYMid meet" viewBox="-120 -168 240 336" width="100%"><defs><symbol id="SDJ" viewBox="-600 -600 1200 1200" preserveAspectRatio="xMinYMid"><path d="M-400 0C-350 0 0 -450 0 -500C0 -450 350 0 400 0C350 0 0 450 0 500C0 450 -350 0 -400 0Z" fill="red"></path></symbol><symbol id="VDJ" viewBox="-500 -500 1000 1000" preserveAspectRatio="xMinYMid"><path d="M50 -460L250 -460M150 -460L150 250A100 100 0 0 1 -250 250L-250 220" stroke="red" stroke-width="80" stroke-linecap="square" stroke-miterlimit="1.5" fill="none"></path></symbol></defs><rect width="239" height="335" x="-119.5" y="-167.5" rx="12" ry="12" fill="white" stroke="black"></rect><use xlink:href="#VDJ" height="136" width="136" x="-68" y="-68"></use><use xlink:href="#VDJ" height="50" width="50" x="-118" y="-156"></use><use xlink:href="#SDJ" height="41.827" width="41.827" x="-113.913" y="-101"></use><g transform="rotate(180)"><use xlink:href="#VDJ" height="50" width="50" x="-118" y="-156"></use><use xlink:href="#SDJ" height="41.827" width="41.827" x="-113.913" y="-101"></use></g></svg>
